<svg width="287" height="74" viewBox="0 0 287 74" fill="none" xmlns="http://www.w3.org/2000/svg">
<g filter="url(#filter0_d_78_14)">
<mask id="path-1-outside-1_78_14" maskUnits="userSpaceOnUse" x="21" y="18" width="245" height="46" fill="black">
<rect fill="white" x="21" y="18" width="245" height="46"/>
<path d="M38.7006 19.3C41.7673 19.3 44.5506 19.85 47.0506 20.95L45.6006 27.6L45.0506 27.9C44.1173 27.2667 43.0506 26.7833 41.8506 26.45C40.6839 26.0833 39.5339 25.9 38.4006 25.9C36.0006 25.9 34.2173 26.65 33.0506 28.15C31.9173 29.65 31.3506 32.0167 31.3506 35.25C31.3506 42.25 33.8339 45.75 38.8006 45.75C39.9006 45.75 41.0673 45.6 42.3006 45.3C43.5339 45 44.6506 44.5833 45.6506 44.05L46.3506 44.45L45.7006 51.1C43.3673 52.0333 40.8506 52.5 38.1506 52.5C33.1173 52.5 29.3006 51.1 26.7006 48.3C24.1006 45.5 22.8006 41.45 22.8006 36.15C22.8006 30.7833 24.1839 26.6333 26.9506 23.7C29.7173 20.7667 33.6339 19.3 38.7006 19.3ZM72.84 52H65.24L64.54 47.95L64.44 47.55L59.79 47.45L55.79 47.55L55.04 52H47.69L56.14 26.6H65.14L72.84 52ZM62.99 41.95L60.74 33.35H60.29L57.54 41.95L60.24 42L62.99 41.95ZM93.8955 42.05C95.4622 44.4167 97.4788 47.15 99.9455 50.25L99.8455 51.1C97.2788 51.8667 94.8455 52.3167 92.5455 52.45L91.4955 51.7C90.0955 49.1333 88.8122 46.65 87.6455 44.25H84.3455L84.6455 52H77.1455L77.4955 44.55L77.1455 26.6L89.1955 26.55C92.1622 26.55 94.4455 27.2333 96.0455 28.6C97.6455 29.9333 98.4455 31.85 98.4455 34.35C98.4455 35.8833 98.0455 37.3167 97.2455 38.65C96.4455 39.9833 95.3288 41.1167 93.8955 42.05ZM90.4955 35.1C90.4955 34 90.1788 33.2 89.5455 32.7C88.9455 32.2 87.9622 31.9167 86.5955 31.85L84.6455 32L84.4955 38.7L87.8455 38.9C88.7788 38.5667 89.4455 38.1 89.8455 37.5C90.2788 36.8667 90.4955 36.0667 90.4955 35.1ZM115.8 26.4C119.733 26.4 122.75 27.4333 124.85 29.5C126.983 31.5333 128.05 34.4667 128.05 38.3C128.05 42.8333 126.833 46.3167 124.4 48.75C122 51.15 118.533 52.35 114 52.35C111 52.35 107.683 52.2333 104.05 52L104.4 44.55L104.05 26.6L115.8 26.4ZM115.35 46.7C116.916 46.7 118.116 46.1833 118.95 45.15C119.816 44.1167 120.25 42.4333 120.25 40.1C120.25 37.2667 119.85 35.2667 119.05 34.1C118.283 32.9333 116.983 32.35 115.15 32.35C114.05 32.35 112.85 32.4 111.55 32.5L111.25 43.8L111.35 46.35C112.916 46.5833 114.25 46.7 115.35 46.7ZM173.54 56.85C172.44 58.9833 171.156 60.7 169.69 62L169.09 62.3C163.29 59.8333 157.973 56.5833 153.14 52.55H152.24C147.64 52.55 144.09 51.15 141.59 48.35C139.09 45.5167 137.84 41.5167 137.84 36.35C137.84 30.8833 139.19 26.6667 141.89 23.7C144.623 20.7333 148.473 19.25 153.44 19.25C158.04 19.25 161.59 20.6333 164.09 23.4C166.59 26.1333 167.84 30.05 167.84 35.15C167.84 38.9167 167.19 42.1167 165.89 44.75C164.623 47.3833 162.79 49.35 160.39 50.65C164.523 53.05 168.806 54.85 173.24 56.05L173.54 56.85ZM146.29 35.35C146.29 38.15 146.506 40.35 146.94 41.95C147.373 43.5167 148.073 44.65 149.04 45.35C150.006 46.05 151.306 46.4 152.94 46.4C154.506 46.4 155.74 46.1 156.64 45.5C157.573 44.8667 158.256 43.85 158.69 42.45C159.123 41.05 159.34 39.15 159.34 36.75C159.34 33.9833 159.123 31.8167 158.69 30.25C158.256 28.65 157.556 27.5 156.59 26.8C155.623 26.1 154.323 25.75 152.69 25.75C151.123 25.75 149.873 26.0667 148.94 26.7C148.006 27.3 147.323 28.3 146.89 29.7C146.49 31.0667 146.29 32.95 146.29 35.35ZM194.554 39.5L194.504 43.5C194.504 46.3667 193.504 48.5833 191.504 50.15C189.504 51.6833 186.654 52.45 182.954 52.45C179.388 52.45 176.654 51.6833 174.754 50.15C172.888 48.5833 171.988 46.3667 172.054 43.5L172.154 39.45L171.954 26.6H179.454L179.104 42.45C179.071 43.85 179.388 44.8667 180.054 45.5C180.754 46.1333 181.838 46.45 183.304 46.45C184.771 46.45 185.838 46.1333 186.504 45.5C187.204 44.8667 187.538 43.85 187.504 42.45L187.154 26.6H194.804L194.554 39.5ZM219.032 45.95L219.482 46.45L218.982 52H200.632L200.982 44.55L200.632 26.6H219.232L219.682 27.15L219.182 32.65L212.582 32.4H208.132L208.032 36.3H212.332L216.682 36.15L217.082 36.7L216.632 42.25L211.832 42.1L207.882 42.15L207.832 43.8L207.932 46.2H212.132L219.032 45.95ZM233.623 26.15C236.056 26.15 238.49 26.5833 240.923 27.45L239.823 33.95L238.723 34.2C237.656 33.4333 236.556 32.8333 235.423 32.4C234.323 31.9667 233.39 31.75 232.623 31.75C231.923 31.75 231.373 31.9167 230.973 32.25C230.606 32.55 230.423 32.9333 230.423 33.4C230.423 33.9667 230.706 34.4333 231.273 34.8C231.84 35.1667 232.806 35.6333 234.173 36.2C235.64 36.7667 236.856 37.3333 237.823 37.9C238.823 38.4333 239.673 39.2 240.373 40.2C241.106 41.2 241.473 42.45 241.473 43.95C241.473 45.45 241.09 46.85 240.323 48.15C239.59 49.45 238.406 50.5 236.773 51.3C235.173 52.1 233.173 52.5 230.773 52.5C227.873 52.5 225.04 52 222.273 51L223.323 44.25L224.073 43.7C225.24 44.7333 226.54 45.5667 227.973 46.2C229.406 46.8 230.656 47.1 231.723 47.1C232.423 47.1 232.99 46.9333 233.423 46.6C233.856 46.2667 234.073 45.85 234.073 45.35C234.073 44.7833 233.79 44.3167 233.223 43.95C232.656 43.5833 231.69 43.1167 230.323 42.55C228.823 41.95 227.573 41.3667 226.573 40.8C225.606 40.2333 224.756 39.45 224.023 38.45C223.323 37.45 222.973 36.1833 222.973 34.65C222.973 33.05 223.39 31.6167 224.223 30.35C225.09 29.05 226.323 28.0333 227.923 27.3C229.523 26.5333 231.423 26.15 233.623 26.15ZM264.441 27.15L263.991 32.75L258.691 32.45H257.791L257.591 43.8L257.891 52H250.391L250.741 44.55L250.541 32.45H249.641L244.241 32.75L243.741 32.2L244.191 26.6H264.041L264.441 27.15Z"/>
</mask>
<path d="M38.7006 19.3C41.7673 19.3 44.5506 19.85 47.0506 20.95L45.6006 27.6L45.0506 27.9C44.1173 27.2667 43.0506 26.7833 41.8506 26.45C40.6839 26.0833 39.5339 25.9 38.4006 25.9C36.0006 25.9 34.2173 26.65 33.0506 28.15C31.9173 29.65 31.3506 32.0167 31.3506 35.25C31.3506 42.25 33.8339 45.75 38.8006 45.75C39.9006 45.75 41.0673 45.6 42.3006 45.3C43.5339 45 44.6506 44.5833 45.6506 44.05L46.3506 44.45L45.7006 51.1C43.3673 52.0333 40.8506 52.5 38.1506 52.5C33.1173 52.5 29.3006 51.1 26.7006 48.3C24.1006 45.5 22.8006 41.45 22.8006 36.15C22.8006 30.7833 24.1839 26.6333 26.9506 23.7C29.7173 20.7667 33.6339 19.3 38.7006 19.3ZM72.84 52H65.24L64.54 47.95L64.44 47.55L59.79 47.45L55.79 47.55L55.04 52H47.69L56.14 26.6H65.14L72.84 52ZM62.99 41.95L60.74 33.35H60.29L57.54 41.95L60.24 42L62.99 41.95ZM93.8955 42.05C95.4622 44.4167 97.4788 47.15 99.9455 50.25L99.8455 51.1C97.2788 51.8667 94.8455 52.3167 92.5455 52.45L91.4955 51.7C90.0955 49.1333 88.8122 46.65 87.6455 44.25H84.3455L84.6455 52H77.1455L77.4955 44.55L77.1455 26.6L89.1955 26.55C92.1622 26.55 94.4455 27.2333 96.0455 28.6C97.6455 29.9333 98.4455 31.85 98.4455 34.35C98.4455 35.8833 98.0455 37.3167 97.2455 38.65C96.4455 39.9833 95.3288 41.1167 93.8955 42.05ZM90.4955 35.1C90.4955 34 90.1788 33.2 89.5455 32.7C88.9455 32.2 87.9622 31.9167 86.5955 31.85L84.6455 32L84.4955 38.7L87.8455 38.9C88.7788 38.5667 89.4455 38.1 89.8455 37.5C90.2788 36.8667 90.4955 36.0667 90.4955 35.1ZM115.8 26.4C119.733 26.4 122.75 27.4333 124.85 29.5C126.983 31.5333 128.05 34.4667 128.05 38.3C128.05 42.8333 126.833 46.3167 124.4 48.75C122 51.15 118.533 52.35 114 52.35C111 52.35 107.683 52.2333 104.05 52L104.4 44.55L104.05 26.6L115.8 26.4ZM115.35 46.7C116.916 46.7 118.116 46.1833 118.95 45.15C119.816 44.1167 120.25 42.4333 120.25 40.1C120.25 37.2667 119.85 35.2667 119.05 34.1C118.283 32.9333 116.983 32.35 115.15 32.35C114.05 32.35 112.85 32.4 111.55 32.5L111.25 43.8L111.35 46.35C112.916 46.5833 114.25 46.7 115.35 46.7ZM173.54 56.85C172.44 58.9833 171.156 60.7 169.69 62L169.09 62.3C163.29 59.8333 157.973 56.5833 153.14 52.55H152.24C147.64 52.55 144.09 51.15 141.59 48.35C139.09 45.5167 137.84 41.5167 137.84 36.35C137.84 30.8833 139.19 26.6667 141.89 23.7C144.623 20.7333 148.473 19.25 153.44 19.25C158.04 19.25 161.59 20.6333 164.09 23.4C166.59 26.1333 167.84 30.05 167.84 35.15C167.84 38.9167 167.19 42.1167 165.89 44.75C164.623 47.3833 162.79 49.35 160.39 50.65C164.523 53.05 168.806 54.85 173.24 56.05L173.54 56.85ZM146.29 35.35C146.29 38.15 146.506 40.35 146.94 41.95C147.373 43.5167 148.073 44.65 149.04 45.35C150.006 46.05 151.306 46.4 152.94 46.4C154.506 46.4 155.74 46.1 156.64 45.5C157.573 44.8667 158.256 43.85 158.69 42.45C159.123 41.05 159.34 39.15 159.34 36.75C159.34 33.9833 159.123 31.8167 158.69 30.25C158.256 28.65 157.556 27.5 156.59 26.8C155.623 26.1 154.323 25.75 152.69 25.75C151.123 25.75 149.873 26.0667 148.94 26.7C148.006 27.3 147.323 28.3 146.89 29.7C146.49 31.0667 146.29 32.95 146.29 35.35ZM194.554 39.5L194.504 43.5C194.504 46.3667 193.504 48.5833 191.504 50.15C189.504 51.6833 186.654 52.45 182.954 52.45C179.388 52.45 176.654 51.6833 174.754 50.15C172.888 48.5833 171.988 46.3667 172.054 43.5L172.154 39.45L171.954 26.6H179.454L179.104 42.45C179.071 43.85 179.388 44.8667 180.054 45.5C180.754 46.1333 181.838 46.45 183.304 46.45C184.771 46.45 185.838 46.1333 186.504 45.5C187.204 44.8667 187.538 43.85 187.504 42.45L187.154 26.6H194.804L194.554 39.5ZM219.032 45.95L219.482 46.45L218.982 52H200.632L200.982 44.55L200.632 26.6H219.232L219.682 27.15L219.182 32.65L212.582 32.4H208.132L208.032 36.3H212.332L216.682 36.15L217.082 36.7L216.632 42.25L211.832 42.1L207.882 42.15L207.832 43.8L207.932 46.2H212.132L219.032 45.95ZM233.623 26.15C236.056 26.15 238.49 26.5833 240.923 27.45L239.823 33.95L238.723 34.2C237.656 33.4333 236.556 32.8333 235.423 32.4C234.323 31.9667 233.39 31.75 232.623 31.75C231.923 31.75 231.373 31.9167 230.973 32.25C230.606 32.55 230.423 32.9333 230.423 33.4C230.423 33.9667 230.706 34.4333 231.273 34.8C231.84 35.1667 232.806 35.6333 234.173 36.2C235.64 36.7667 236.856 37.3333 237.823 37.9C238.823 38.4333 239.673 39.2 240.373 40.2C241.106 41.2 241.473 42.45 241.473 43.95C241.473 45.45 241.09 46.85 240.323 48.15C239.59 49.45 238.406 50.5 236.773 51.3C235.173 52.1 233.173 52.5 230.773 52.5C227.873 52.5 225.04 52 222.273 51L223.323 44.25L224.073 43.7C225.24 44.7333 226.54 45.5667 227.973 46.2C229.406 46.8 230.656 47.1 231.723 47.1C232.423 47.1 232.99 46.9333 233.423 46.6C233.856 46.2667 234.073 45.85 234.073 45.35C234.073 44.7833 233.79 44.3167 233.223 43.95C232.656 43.5833 231.69 43.1167 230.323 42.55C228.823 41.95 227.573 41.3667 226.573 40.8C225.606 40.2333 224.756 39.45 224.023 38.45C223.323 37.45 222.973 36.1833 222.973 34.65C222.973 33.05 223.39 31.6167 224.223 30.35C225.09 29.05 226.323 28.0333 227.923 27.3C229.523 26.5333 231.423 26.15 233.623 26.15ZM264.441 27.15L263.991 32.75L258.691 32.45H257.791L257.591 43.8L257.891 52H250.391L250.741 44.55L250.541 32.45H249.641L244.241 32.75L243.741 32.2L244.191 26.6H264.041L264.441 27.15Z" fill="#F3C41C"/>
<path d="M38.7006 19.3C41.7673 19.3 44.5506 19.85 47.0506 20.95L45.6006 27.6L45.0506 27.9C44.1173 27.2667 43.0506 26.7833 41.8506 26.45C40.6839 26.0833 39.5339 25.9 38.4006 25.9C36.0006 25.9 34.2173 26.65 33.0506 28.15C31.9173 29.65 31.3506 32.0167 31.3506 35.25C31.3506 42.25 33.8339 45.75 38.8006 45.75C39.9006 45.75 41.0673 45.6 42.3006 45.3C43.5339 45 44.6506 44.5833 45.6506 44.05L46.3506 44.45L45.7006 51.1C43.3673 52.0333 40.8506 52.5 38.1506 52.5C33.1173 52.5 29.3006 51.1 26.7006 48.3C24.1006 45.5 22.8006 41.45 22.8006 36.15C22.8006 30.7833 24.1839 26.6333 26.9506 23.7C29.7173 20.7667 33.6339 19.3 38.7006 19.3ZM72.84 52H65.24L64.54 47.95L64.44 47.55L59.79 47.45L55.79 47.55L55.04 52H47.69L56.14 26.6H65.14L72.84 52ZM62.99 41.95L60.74 33.35H60.29L57.54 41.95L60.24 42L62.99 41.95ZM93.8955 42.05C95.4622 44.4167 97.4788 47.15 99.9455 50.25L99.8455 51.1C97.2788 51.8667 94.8455 52.3167 92.5455 52.45L91.4955 51.7C90.0955 49.1333 88.8122 46.65 87.6455 44.25H84.3455L84.6455 52H77.1455L77.4955 44.55L77.1455 26.6L89.1955 26.55C92.1622 26.55 94.4455 27.2333 96.0455 28.6C97.6455 29.9333 98.4455 31.85 98.4455 34.35C98.4455 35.8833 98.0455 37.3167 97.2455 38.65C96.4455 39.9833 95.3288 41.1167 93.8955 42.05ZM90.4955 35.1C90.4955 34 90.1788 33.2 89.5455 32.7C88.9455 32.2 87.9622 31.9167 86.5955 31.85L84.6455 32L84.4955 38.7L87.8455 38.9C88.7788 38.5667 89.4455 38.1 89.8455 37.5C90.2788 36.8667 90.4955 36.0667 90.4955 35.1ZM115.8 26.4C119.733 26.4 122.75 27.4333 124.85 29.5C126.983 31.5333 128.05 34.4667 128.05 38.3C128.05 42.8333 126.833 46.3167 124.4 48.75C122 51.15 118.533 52.35 114 52.35C111 52.35 107.683 52.2333 104.05 52L104.4 44.55L104.05 26.6L115.8 26.4ZM115.35 46.7C116.916 46.7 118.116 46.1833 118.95 45.15C119.816 44.1167 120.25 42.4333 120.25 40.1C120.25 37.2667 119.85 35.2667 119.05 34.1C118.283 32.9333 116.983 32.35 115.15 32.35C114.05 32.35 112.85 32.4 111.55 32.5L111.25 43.8L111.35 46.35C112.916 46.5833 114.25 46.7 115.35 46.7ZM173.54 56.85C172.44 58.9833 171.156 60.7 169.69 62L169.09 62.3C163.29 59.8333 157.973 56.5833 153.14 52.55H152.24C147.64 52.55 144.09 51.15 141.59 48.35C139.09 45.5167 137.84 41.5167 137.84 36.35C137.84 30.8833 139.19 26.6667 141.89 23.7C144.623 20.7333 148.473 19.25 153.44 19.25C158.04 19.25 161.59 20.6333 164.09 23.4C166.59 26.1333 167.84 30.05 167.84 35.15C167.84 38.9167 167.19 42.1167 165.89 44.75C164.623 47.3833 162.79 49.35 160.39 50.65C164.523 53.05 168.806 54.85 173.24 56.05L173.54 56.85ZM146.29 35.35C146.29 38.15 146.506 40.35 146.94 41.95C147.373 43.5167 148.073 44.65 149.04 45.35C150.006 46.05 151.306 46.4 152.94 46.4C154.506 46.4 155.74 46.1 156.64 45.5C157.573 44.8667 158.256 43.85 158.69 42.45C159.123 41.05 159.34 39.15 159.34 36.75C159.34 33.9833 159.123 31.8167 158.69 30.25C158.256 28.65 157.556 27.5 156.59 26.8C155.623 26.1 154.323 25.75 152.69 25.75C151.123 25.75 149.873 26.0667 148.94 26.7C148.006 27.3 147.323 28.3 146.89 29.7C146.49 31.0667 146.29 32.95 146.29 35.35ZM194.554 39.5L194.504 43.5C194.504 46.3667 193.504 48.5833 191.504 50.15C189.504 51.6833 186.654 52.45 182.954 52.45C179.388 52.45 176.654 51.6833 174.754 50.15C172.888 48.5833 171.988 46.3667 172.054 43.5L172.154 39.45L171.954 26.6H179.454L179.104 42.45C179.071 43.85 179.388 44.8667 180.054 45.5C180.754 46.1333 181.838 46.45 183.304 46.45C184.771 46.45 185.838 46.1333 186.504 45.5C187.204 44.8667 187.538 43.85 187.504 42.45L187.154 26.6H194.804L194.554 39.5ZM219.032 45.95L219.482 46.45L218.982 52H200.632L200.982 44.55L200.632 26.6H219.232L219.682 27.15L219.182 32.65L212.582 32.4H208.132L208.032 36.3H212.332L216.682 36.15L217.082 36.7L216.632 42.25L211.832 42.1L207.882 42.15L207.832 43.8L207.932 46.2H212.132L219.032 45.95ZM233.623 26.15C236.056 26.15 238.49 26.5833 240.923 27.45L239.823 33.95L238.723 34.2C237.656 33.4333 236.556 32.8333 235.423 32.4C234.323 31.9667 233.39 31.75 232.623 31.75C231.923 31.75 231.373 31.9167 230.973 32.25C230.606 32.55 230.423 32.9333 230.423 33.4C230.423 33.9667 230.706 34.4333 231.273 34.8C231.84 35.1667 232.806 35.6333 234.173 36.2C235.64 36.7667 236.856 37.3333 237.823 37.9C238.823 38.4333 239.673 39.2 240.373 40.2C241.106 41.2 241.473 42.45 241.473 43.95C241.473 45.45 241.09 46.85 240.323 48.15C239.59 49.45 238.406 50.5 236.773 51.3C235.173 52.1 233.173 52.5 230.773 52.5C227.873 52.5 225.04 52 222.273 51L223.323 44.25L224.073 43.7C225.24 44.7333 226.54 45.5667 227.973 46.2C229.406 46.8 230.656 47.1 231.723 47.1C232.423 47.1 232.99 46.9333 233.423 46.6C233.856 46.2667 234.073 45.85 234.073 45.35C234.073 44.7833 233.79 44.3167 233.223 43.95C232.656 43.5833 231.69 43.1167 230.323 42.55C228.823 41.95 227.573 41.3667 226.573 40.8C225.606 40.2333 224.756 39.45 224.023 38.45C223.323 37.45 222.973 36.1833 222.973 34.65C222.973 33.05 223.39 31.6167 224.223 30.35C225.09 29.05 226.323 28.0333 227.923 27.3C229.523 26.5333 231.423 26.15 233.623 26.15ZM264.441 27.15L263.991 32.75L258.691 32.45H257.791L257.591 43.8L257.891 52H250.391L250.741 44.55L250.541 32.45H249.641L244.241 32.75L243.741 32.2L244.191 26.6H264.041L264.441 27.15Z" fill="#841616" fill-opacity="0.2"/>
<path d="M47.0506 20.95L48.0276 21.163L48.2018 20.364L47.4533 20.0347L47.0506 20.95ZM45.6006 27.6L46.0794 28.4779L46.4803 28.2592L46.5776 27.813L45.6006 27.6ZM45.0506 27.9L44.4891 28.7275L44.9939 29.07L45.5294 28.7779L45.0506 27.9ZM41.8506 26.45L41.5508 27.404L41.5668 27.409L41.5829 27.4135L41.8506 26.45ZM33.0506 28.15L32.2612 27.536L32.2527 27.5472L33.0506 28.15ZM42.3006 45.3L42.5369 46.2717L42.5369 46.2717L42.3006 45.3ZM45.6506 44.05L46.1467 43.1818L45.6673 42.9078L45.18 43.1676L45.6506 44.05ZM46.3506 44.45L47.3458 44.5473L47.4088 43.903L46.8467 43.5818L46.3506 44.45ZM45.7006 51.1L46.072 52.0285L46.6367 51.8026L46.6958 51.1973L45.7006 51.1ZM26.7006 48.3L25.9678 48.9805L26.7006 48.3ZM26.9506 23.7L26.2231 23.0139L26.2231 23.0139L26.9506 23.7ZM38.7006 20.3C41.6456 20.3 44.2895 20.8276 46.6478 21.8653L47.4533 20.0347C44.8117 18.8724 41.8889 18.3 38.7006 18.3V20.3ZM46.0735 20.737L44.6235 27.387L46.5776 27.813L48.0276 21.163L46.0735 20.737ZM45.1217 26.7221L44.5717 27.0221L45.5294 28.7779L46.0794 28.4779L45.1217 26.7221ZM45.6121 27.0725C44.58 26.3722 43.4121 25.8459 42.1182 25.4865L41.5829 27.4135C42.6891 27.7208 43.6545 28.1612 44.4891 28.7275L45.6121 27.0725ZM42.1504 25.496C40.8944 25.1013 39.6433 24.9 38.4006 24.9V26.9C39.4245 26.9 40.4735 27.0654 41.5508 27.404L42.1504 25.496ZM38.4006 24.9C35.7811 24.9 33.6661 25.7299 32.2612 27.5361L33.8399 28.7639C34.7684 27.5701 36.2201 26.9 38.4006 26.9V24.9ZM32.2527 27.5472C30.9232 29.3069 30.3506 31.9398 30.3506 35.25H32.3506C32.3506 32.0935 32.9113 29.9931 33.8485 28.7528L32.2527 27.5472ZM30.3506 35.25C30.3506 38.8379 30.9815 41.708 32.3975 43.7037C33.8582 45.7624 36.0517 46.75 38.8006 46.75V44.75C36.5828 44.75 35.0513 43.9876 34.0287 42.5463C32.9613 41.042 32.3506 38.6621 32.3506 35.25H30.3506ZM38.8006 46.75C39.9913 46.75 41.2378 46.5877 42.5369 46.2717L42.0642 44.3283C40.8967 44.6123 39.8099 44.75 38.8006 44.75V46.75ZM42.5369 46.2717C43.8422 45.9542 45.0389 45.5096 46.1212 44.9324L45.18 43.1676C44.2623 43.6571 43.2257 44.0458 42.0642 44.3283L42.5369 46.2717ZM45.1544 44.9182L45.8544 45.3182L46.8467 43.5818L46.1467 43.1818L45.1544 44.9182ZM45.3553 44.3527L44.7053 51.0027L46.6958 51.1973L47.3458 44.5473L45.3553 44.3527ZM45.3292 50.1715C43.1225 51.0542 40.7329 51.5 38.1506 51.5V53.5C40.9683 53.5 43.612 53.0125 46.072 52.0285L45.3292 50.1715ZM38.1506 51.5C33.3027 51.5 29.7892 50.1566 27.4334 47.6195L25.9678 48.9805C28.812 52.0434 32.9318 53.5 38.1506 53.5V51.5ZM27.4334 47.6195C25.0621 45.0658 23.8006 41.296 23.8006 36.15H21.8006C21.8006 41.604 23.1391 45.9342 25.9678 48.9805L27.4334 47.6195ZM23.8006 36.15C23.8006 30.9519 25.1379 27.0793 27.6781 24.3861L26.2231 23.0139C23.2299 26.1874 21.8006 30.6147 21.8006 36.15H23.8006ZM27.6781 24.3861C30.2097 21.7019 33.8341 20.3 38.7006 20.3V18.3C33.4337 18.3 29.2248 19.8314 26.2231 23.0139L27.6781 24.3861ZM72.84 52V53H74.1881L73.797 51.7099L72.84 52ZM65.24 52L64.2547 52.1703L64.3981 53H65.24V52ZM64.54 47.95L65.5254 47.7797L65.5191 47.7433L65.5102 47.7075L64.54 47.95ZM64.44 47.55L65.4102 47.3075L65.225 46.5666L64.4615 46.5502L64.44 47.55ZM59.79 47.45L59.8115 46.4502L59.7883 46.4497L59.765 46.4503L59.79 47.45ZM55.79 47.55L55.765 46.5503L54.941 46.5709L54.8039 47.3838L55.79 47.55ZM55.04 52V53H55.8856L56.0261 52.1662L55.04 52ZM47.69 52L46.7412 51.6843L46.3035 53H47.69V52ZM56.14 26.6V25.6H55.4188L55.1912 26.2843L56.14 26.6ZM65.14 26.6L66.097 26.3099L65.8818 25.6H65.14V26.6ZM62.99 41.95L63.0082 42.9498L64.2792 42.9267L63.9575 41.6969L62.99 41.95ZM60.74 33.35L61.7075 33.0969L61.5121 32.35H60.74V33.35ZM60.29 33.35V32.35H59.5599L59.3376 33.0454L60.29 33.35ZM57.54 41.95L56.5876 41.6454L56.1784 42.925L57.5215 42.9498L57.54 41.95ZM60.24 42L60.2215 42.9998L60.2399 43.0002L60.2582 42.9998L60.24 42ZM72.84 51H65.24V53H72.84V51ZM66.2254 51.8297L65.5254 47.7797L63.5547 48.1203L64.2547 52.1703L66.2254 51.8297ZM65.5102 47.7075L65.4102 47.3075L63.4699 47.7925L63.5699 48.1925L65.5102 47.7075ZM64.4615 46.5502L59.8115 46.4502L59.7685 48.4498L64.4185 48.5498L64.4615 46.5502ZM59.765 46.4503L55.765 46.5503L55.815 48.5497L59.815 48.4497L59.765 46.4503ZM54.8039 47.3838L54.0539 51.8338L56.0261 52.1662L56.7761 47.7162L54.8039 47.3838ZM55.04 51H47.69V53H55.04V51ZM48.6389 52.3157L57.0889 26.9157L55.1912 26.2843L46.7412 51.6843L48.6389 52.3157ZM56.14 27.6H65.14V25.6H56.14V27.6ZM64.183 26.8901L71.883 52.2901L73.797 51.7099L66.097 26.3099L64.183 26.8901ZM63.9575 41.6969L61.7075 33.0969L59.7726 33.6031L62.0226 42.2031L63.9575 41.6969ZM60.74 32.35H60.29V34.35H60.74V32.35ZM59.3376 33.0454L56.5876 41.6454L58.4925 42.2546L61.2425 33.6546L59.3376 33.0454ZM57.5215 42.9498L60.2215 42.9998L60.2586 41.0002L57.5586 40.9502L57.5215 42.9498ZM60.2582 42.9998L63.0082 42.9498L62.9719 40.9502L60.2219 41.0002L60.2582 42.9998ZM93.8955 42.05L93.3498 41.212L92.5055 41.7618L93.0617 42.602L93.8955 42.05ZM99.9455 50.25L100.939 50.3668L100.987 49.9532L100.728 49.6274L99.9455 50.25ZM99.8455 51.1L100.132 52.0582L100.762 51.87L100.839 51.2168L99.8455 51.1ZM92.5455 52.45L91.9643 53.2637L92.2513 53.4687L92.6034 53.4483L92.5455 52.45ZM91.4955 51.7L90.6176 52.1789L90.7275 52.3803L90.9143 52.5137L91.4955 51.7ZM87.6455 44.25L88.5449 43.8128L88.2713 43.25H87.6455V44.25ZM84.3455 44.25V43.25H83.306L83.3463 44.2887L84.3455 44.25ZM84.6455 52V53H85.685L85.6448 51.9613L84.6455 52ZM77.1455 52L76.1466 51.9531L76.0974 53H77.1455V52ZM77.4955 44.55L78.4944 44.5969L78.496 44.5637L78.4953 44.5305L77.4955 44.55ZM77.1455 26.6L77.1414 25.6L76.1259 25.6042L76.1457 26.6195L77.1455 26.6ZM89.1955 26.55V25.55L89.1914 25.55L89.1955 26.55ZM96.0455 28.6L95.396 29.3604L95.4053 29.3682L96.0455 28.6ZM97.2455 38.65L96.388 38.1355L96.388 38.1355L97.2455 38.65ZM89.5455 32.7L88.9053 33.4682L88.9155 33.4767L88.9259 33.4849L89.5455 32.7ZM86.5955 31.85L86.6442 30.8512L86.5815 30.8481L86.5188 30.8529L86.5955 31.85ZM84.6455 32L84.5688 31.0029L83.666 31.0724L83.6458 31.9776L84.6455 32ZM84.4955 38.7L83.4958 38.6776L83.4742 39.6408L84.4359 39.6982L84.4955 38.7ZM87.8455 38.9L87.7859 39.8982L87.9896 39.9104L88.1818 39.8417L87.8455 38.9ZM89.8455 37.5L89.0201 36.9353L89.0135 36.9453L89.8455 37.5ZM93.0617 42.602C94.6493 45.0003 96.6847 47.758 99.163 50.8726L100.728 49.6274C98.273 46.542 96.2751 43.833 94.7294 41.498L93.0617 42.602ZM98.9524 50.1332L98.8524 50.9832L100.839 51.2168L100.939 50.3668L98.9524 50.1332ZM99.5593 50.1418C97.0552 50.8898 94.6989 51.3235 92.4876 51.4517L92.6034 53.4483C94.9921 53.3098 97.5025 52.8435 100.132 52.0582L99.5593 50.1418ZM93.1267 51.6363L92.0767 50.8863L90.9143 52.5137L91.9643 53.2637L93.1267 51.6363ZM92.3734 51.2211C90.9802 48.6669 89.7041 46.1975 88.5449 43.8128L86.7461 44.6872C87.9202 47.1025 89.2108 49.5997 90.6176 52.1789L92.3734 51.2211ZM87.6455 43.25H84.3455V45.25H87.6455V43.25ZM83.3463 44.2887L83.6463 52.0387L85.6448 51.9613L85.3448 44.2113L83.3463 44.2887ZM84.6455 51H77.1455V53H84.6455V51ZM78.1444 52.0469L78.4944 44.5969L76.4966 44.5031L76.1466 51.9531L78.1444 52.0469ZM78.4953 44.5305L78.1453 26.5805L76.1457 26.6195L76.4957 44.5695L78.4953 44.5305ZM77.1497 27.6L89.1997 27.55L89.1914 25.55L77.1414 25.6L77.1497 27.6ZM89.1955 27.55C92.0206 27.55 94.039 28.2013 95.396 29.3604L96.695 27.8396C94.852 26.2654 92.3037 25.55 89.1955 25.55V27.55ZM95.4053 29.3682C96.7313 30.4732 97.4455 32.0812 97.4455 34.35H99.4455C99.4455 31.6188 98.5597 29.3934 96.6857 27.8318L95.4053 29.3682ZM97.4455 34.35C97.4455 35.6994 97.0961 36.9553 96.388 38.1355L98.103 39.1645C98.9949 37.6781 99.4455 36.0672 99.4455 34.35H97.4455ZM96.388 38.1355C95.6736 39.3262 94.6689 40.3531 93.3498 41.212L94.4412 42.888C95.9888 41.8803 97.2174 40.6405 98.103 39.1645L96.388 38.1355ZM91.4955 35.1C91.4955 33.8124 91.1184 32.6677 90.1652 31.9151L88.9259 33.4849C89.2392 33.7323 89.4955 34.1875 89.4955 35.1H91.4955ZM90.1857 31.9318C89.3339 31.2219 88.0825 30.9213 86.6442 30.8512L86.5468 32.8488C87.8418 32.912 88.5572 33.1781 88.9053 33.4682L90.1857 31.9318ZM86.5188 30.8529L84.5688 31.0029L84.7222 32.9971L86.6722 32.8471L86.5188 30.8529ZM83.6458 31.9776L83.4958 38.6776L85.4953 38.7224L85.6453 32.0224L83.6458 31.9776ZM84.4359 39.6982L87.7859 39.8982L87.9051 37.9018L84.5551 37.7018L84.4359 39.6982ZM88.1818 39.8417C89.2433 39.4626 90.1208 38.8898 90.6776 38.0547L89.0135 36.9453C88.7702 37.3102 88.3144 37.6707 87.5092 37.9583L88.1818 39.8417ZM90.6708 38.0647C91.2443 37.2265 91.4955 36.2158 91.4955 35.1H89.4955C89.4955 35.9176 89.3133 36.5069 89.0202 36.9353L90.6708 38.0647ZM115.8 26.4V25.4H115.791L115.783 25.4001L115.8 26.4ZM124.85 29.5L124.148 30.2127L124.154 30.2183L124.16 30.2239L124.85 29.5ZM124.4 48.75L125.107 49.4571L125.107 49.4571L124.4 48.75ZM104.05 52L103.051 51.9531L103.005 52.9349L103.986 52.9979L104.05 52ZM104.4 44.55L105.399 44.5969L105.4 44.5637L105.4 44.5305L104.4 44.55ZM104.05 26.6L104.033 25.6001L103.03 25.6172L103.05 26.6195L104.05 26.6ZM118.95 45.15L118.184 44.5074L118.177 44.5148L118.171 44.5222L118.95 45.15ZM119.05 34.1L118.214 34.6492L118.22 34.6574L118.225 34.6655L119.05 34.1ZM111.55 32.5L111.473 31.5029L110.574 31.5721L110.55 32.4735L111.55 32.5ZM111.25 43.8L110.25 43.7735L110.249 43.8063L110.251 43.8392L111.25 43.8ZM111.35 46.35L110.351 46.3892L110.383 47.217L111.202 47.3391L111.35 46.35ZM115.8 27.4C119.561 27.4 122.291 28.3852 124.148 30.2127L125.551 28.7873C123.208 26.4815 119.905 25.4 115.8 25.4V27.4ZM124.16 30.2239C126.04 32.0162 127.05 34.6538 127.05 38.3H129.05C129.05 34.2795 127.926 31.0505 125.54 28.7761L124.16 30.2239ZM127.05 38.3C127.05 42.6554 125.885 45.8509 123.693 48.0429L125.107 49.4571C127.782 46.7824 129.05 43.0112 129.05 38.3H127.05ZM123.693 48.0429C121.537 50.1991 118.36 51.35 114 51.35V53.35C118.706 53.35 122.463 52.1009 125.107 49.4571L123.693 48.0429ZM114 51.35C111.025 51.35 107.73 51.2343 104.114 51.0021L103.986 52.9979C107.636 53.2324 110.974 53.35 114 53.35V51.35ZM105.049 52.0469L105.399 44.5969L103.401 44.5031L103.051 51.9531L105.049 52.0469ZM105.4 44.5305L105.05 26.5805L103.05 26.6195L103.4 44.5695L105.4 44.5305ZM104.067 27.5999L115.817 27.3999L115.783 25.4001L104.033 25.6001L104.067 27.5999ZM115.35 47.7C117.158 47.7 118.67 47.09 119.728 45.7778L118.171 44.5222C117.563 45.2766 116.675 45.7 115.35 45.7V47.7ZM119.716 45.7926C120.81 44.488 121.25 42.5126 121.25 40.1H119.25C119.25 42.354 118.823 43.7454 118.184 44.5074L119.716 45.7926ZM121.25 40.1C121.25 37.2324 120.856 34.9664 119.875 33.5345L118.225 34.6655C118.843 35.5669 119.25 37.3009 119.25 40.1H121.25ZM119.886 33.5508C118.877 32.0168 117.202 31.35 115.15 31.35V33.35C116.764 33.35 117.689 33.8499 118.214 34.6492L119.886 33.5508ZM115.15 31.35C114.02 31.35 112.794 31.4013 111.473 31.5029L111.627 33.4971C112.905 33.3987 114.08 33.35 115.15 33.35V31.35ZM110.55 32.4735L110.25 43.7735L112.249 43.8265L112.549 32.5265L110.55 32.4735ZM110.251 43.8392L110.351 46.3892L112.349 46.3108L112.249 43.7608L110.251 43.8392ZM111.202 47.3391C112.799 47.5768 114.184 47.7 115.35 47.7V45.7C114.315 45.7 113.034 45.5898 111.497 45.3609L111.202 47.3391ZM173.54 56.85L174.428 57.3083L174.632 56.9141L174.476 56.4989L173.54 56.85ZM169.69 62L170.137 62.8944L170.255 62.8356L170.353 62.7483L169.69 62ZM169.09 62.3L168.698 63.2202L169.124 63.4011L169.537 63.1944L169.09 62.3ZM153.14 52.55L153.78 51.7822L153.502 51.55H153.14V52.55ZM141.59 48.35L140.84 49.0116L140.844 49.016L141.59 48.35ZM141.89 23.7L141.154 23.0224L141.15 23.0269L141.89 23.7ZM164.09 23.4L163.348 24.0705L163.352 24.0749L164.09 23.4ZM165.89 44.75L164.993 44.3073L164.988 44.3165L165.89 44.75ZM160.39 50.65L159.913 49.7707L158.346 50.6197L159.888 51.5148L160.39 50.65ZM173.24 56.05L174.176 55.6989L173.996 55.2187L173.501 55.0847L173.24 56.05ZM146.94 41.95L145.974 42.2114L145.976 42.2166L146.94 41.95ZM149.04 45.35L148.453 46.1599L148.453 46.1599L149.04 45.35ZM156.64 45.5L157.194 46.3321L157.201 46.3275L156.64 45.5ZM158.69 42.45L157.734 42.1543L157.734 42.1543L158.69 42.45ZM158.69 30.25L157.724 30.5114L157.726 30.5166L158.69 30.25ZM156.59 26.8L156.003 27.6099L156.003 27.6099L156.59 26.8ZM148.94 26.7L149.48 27.5412L149.491 27.5345L149.501 27.5275L148.94 26.7ZM146.89 29.7L145.934 29.4043L145.932 29.4117L145.93 29.4191L146.89 29.7ZM172.651 56.3917C171.595 58.4392 170.382 60.0497 169.026 61.2517L170.353 62.7483C171.93 61.3503 173.284 59.5275 174.428 57.3083L172.651 56.3917ZM169.242 61.1056L168.642 61.4056L169.537 63.1944L170.137 62.8944L169.242 61.1056ZM169.481 61.3798C163.771 58.9514 158.538 55.7527 153.78 51.7822L152.499 53.3178C157.408 57.4139 162.808 60.7153 168.698 63.2202L169.481 61.3798ZM153.14 51.55H152.24V53.55H153.14V51.55ZM152.24 51.55C147.855 51.55 144.604 50.2246 142.336 47.684L140.844 49.016C143.575 52.0754 147.424 53.55 152.24 53.55V51.55ZM142.339 47.6884C140.052 45.0955 138.84 41.363 138.84 36.35H136.84C136.84 41.6704 138.128 45.9378 140.84 49.0116L142.339 47.6884ZM138.84 36.35C138.84 31.041 140.149 27.0977 142.629 24.3731L141.15 23.0269C138.23 26.2356 136.84 30.7257 136.84 36.35H138.84ZM142.625 24.3776C145.127 21.6625 148.683 20.25 153.44 20.25V18.25C148.263 18.25 144.119 19.8042 141.154 23.0224L142.625 24.3776ZM153.44 20.25C157.828 20.25 161.08 21.5612 163.348 24.0704L164.832 22.7296C162.099 19.7055 158.251 18.25 153.44 18.25V20.25ZM163.352 24.0749C165.629 26.5642 166.84 30.205 166.84 35.15H168.84C168.84 29.895 167.551 25.7025 164.828 22.7251L163.352 24.0749ZM166.84 35.15C166.84 38.8051 166.209 41.8449 164.993 44.3073L166.786 45.1927C168.171 42.3884 168.84 39.0282 168.84 35.15H166.84ZM164.988 44.3165C163.806 46.7744 162.115 48.5782 159.913 49.7707L160.866 51.5293C163.464 50.1218 165.44 47.9922 166.791 45.1835L164.988 44.3165ZM159.888 51.5148C164.093 53.9569 168.457 55.7915 172.978 57.0153L173.501 55.0847C169.155 53.9085 164.953 52.1431 160.892 49.7852L159.888 51.5148ZM172.303 56.4011L172.603 57.2011L174.476 56.4989L174.176 55.6989L172.303 56.4011ZM145.29 35.35C145.29 38.1866 145.508 40.4876 145.974 42.2114L147.905 41.6886C147.505 40.2124 147.29 38.1134 147.29 35.35H145.29ZM145.976 42.2166C146.448 43.9233 147.246 45.2858 148.453 46.1599L149.626 44.5401C148.9 44.0142 148.298 43.11 147.903 41.6834L145.976 42.2166ZM148.453 46.1599C149.643 47.0217 151.172 47.4 152.94 47.4V45.4C151.441 45.4 150.369 45.0783 149.626 44.5401L148.453 46.1599ZM152.94 47.4C154.62 47.4 156.072 47.0804 157.194 46.332L156.085 44.6679C155.408 45.1196 154.393 45.4 152.94 45.4V47.4ZM157.201 46.3275C158.372 45.5329 159.165 44.297 159.645 42.7457L157.734 42.1543C157.348 43.403 156.774 44.2004 156.078 44.6725L157.201 46.3275ZM159.645 42.7457C160.121 41.2085 160.34 39.195 160.34 36.75H158.34C158.34 39.105 158.125 40.8915 157.734 42.1543L159.645 42.7457ZM160.34 36.75C160.34 33.9468 160.122 31.6767 159.653 29.9834L157.726 30.5166C158.124 31.9566 158.34 34.0198 158.34 36.75H160.34ZM159.655 29.9886C159.185 28.2526 158.389 26.868 157.176 25.9901L156.003 27.6099C156.724 28.132 157.328 29.0474 157.724 30.5114L159.655 29.9886ZM157.176 25.9901C155.986 25.1283 154.458 24.75 152.69 24.75V26.75C154.188 26.75 155.26 27.0717 156.003 27.6099L157.176 25.9901ZM152.69 24.75C150.998 24.75 149.53 25.0908 148.378 25.8725L149.501 27.5275C150.216 27.0425 151.248 26.75 152.69 26.75V24.75ZM148.399 25.8588C147.212 26.6221 146.415 27.8523 145.934 29.4043L147.845 29.9957C148.231 28.7477 148.801 27.9779 149.48 27.5412L148.399 25.8588ZM145.93 29.4191C145.491 30.9182 145.29 32.9105 145.29 35.35H147.29C147.29 32.9895 147.488 31.2151 147.849 29.9809L145.93 29.4191ZM194.554 39.5L193.555 39.4806L193.555 39.4875L194.554 39.5ZM194.504 43.5L193.504 43.4875V43.5H194.504ZM191.504 50.15L192.113 50.9436L192.121 50.9372L191.504 50.15ZM174.754 50.15L174.112 50.916L174.119 50.9222L174.126 50.9282L174.754 50.15ZM172.054 43.5L171.055 43.4753L171.055 43.4768L172.054 43.5ZM172.154 39.45L173.154 39.4747L173.155 39.4546L173.154 39.4344L172.154 39.45ZM171.954 26.6V25.6H170.939L170.955 26.6156L171.954 26.6ZM179.454 26.6L180.454 26.6221L180.477 25.6H179.454V26.6ZM179.104 42.45L180.104 42.4738L180.104 42.4721L179.104 42.45ZM180.054 45.5L179.366 46.225L179.375 46.2334L179.384 46.2415L180.054 45.5ZM186.504 45.5L185.834 44.7585L185.825 44.7666L185.816 44.775L186.504 45.5ZM187.504 42.45L186.505 42.4721L186.505 42.4738L187.504 42.45ZM187.154 26.6V25.6H186.132L186.155 26.6221L187.154 26.6ZM194.804 26.6L195.804 26.6194L195.824 25.6H194.804V26.6ZM193.555 39.4875L193.505 43.4875L195.504 43.5125L195.554 39.5125L193.555 39.4875ZM193.504 43.5C193.504 46.1041 192.613 48.0117 190.888 49.3628L192.121 50.9372C194.396 49.155 195.504 46.6292 195.504 43.5H193.504ZM190.896 49.3564C189.136 50.7061 186.533 51.45 182.954 51.45V53.45C186.776 53.45 189.873 52.6606 192.113 50.9436L190.896 49.3564ZM182.954 51.45C179.514 51.45 177.039 50.7085 175.383 49.3718L174.126 50.9282C176.27 52.6582 179.261 53.45 182.954 53.45V51.45ZM175.397 49.384C173.806 48.0481 172.993 46.1463 173.054 43.5232L171.055 43.4768C170.982 46.5871 171.97 49.1185 174.112 50.916L175.397 49.384ZM173.054 43.5247L173.154 39.4747L171.155 39.4253L171.055 43.4753L173.054 43.5247ZM173.154 39.4344L172.954 26.5844L170.955 26.6156L171.155 39.4656L173.154 39.4344ZM171.954 27.6H179.454V25.6H171.954V27.6ZM178.455 26.5779L178.105 42.4279L180.104 42.4721L180.454 26.6221L178.455 26.5779ZM178.105 42.4262C178.068 43.9612 178.408 45.3147 179.366 46.225L180.743 44.775C180.368 44.4186 180.074 43.7388 180.104 42.4738L178.105 42.4262ZM179.384 46.2415C180.346 47.1124 181.722 47.45 183.304 47.45V45.45C181.954 45.45 181.163 45.1543 180.725 44.7585L179.384 46.2415ZM183.304 47.45C184.882 47.45 186.257 47.1147 187.193 46.225L185.816 44.775C185.419 45.1519 184.661 45.45 183.304 45.45V47.45ZM187.175 46.2415C188.178 45.3341 188.541 43.9741 188.504 42.4262L186.505 42.4738C186.535 43.7259 186.231 44.3992 185.834 44.7585L187.175 46.2415ZM188.504 42.4279L188.154 26.5779L186.155 26.6221L186.505 42.4721L188.504 42.4279ZM187.154 27.6H194.804V25.6H187.154V27.6ZM193.805 26.5806L193.555 39.4806L195.554 39.5194L195.804 26.6194L193.805 26.5806ZM219.032 45.95L219.775 45.281L219.463 44.9337L218.996 44.9507L219.032 45.95ZM219.482 46.45L220.478 46.5397L220.517 46.1053L220.225 45.781L219.482 46.45ZM218.982 52V53H219.896L219.978 52.0897L218.982 52ZM200.632 52L199.633 51.9531L199.584 53H200.632V52ZM200.982 44.55L201.981 44.5969L201.982 44.5637L201.982 44.5305L200.982 44.55ZM200.632 26.6V25.6H199.612L199.632 26.6195L200.632 26.6ZM219.232 26.6L220.006 25.9668L219.706 25.6H219.232V26.6ZM219.682 27.15L220.678 27.2405L220.715 26.8333L220.456 26.5168L219.682 27.15ZM219.182 32.65L219.144 33.6493L220.092 33.6852L220.178 32.7405L219.182 32.65ZM212.582 32.4L212.62 31.4007L212.601 31.4H212.582V32.4ZM208.132 32.4V31.4H207.157L207.132 32.3744L208.132 32.4ZM208.032 36.3L207.032 36.2744L207.006 37.3H208.032V36.3ZM212.332 36.3V37.3H212.349L212.366 37.2994L212.332 36.3ZM216.682 36.15L217.491 35.5618L217.178 35.1323L216.647 35.1506L216.682 36.15ZM217.082 36.7L218.079 36.7808L218.109 36.4115L217.891 36.1118L217.082 36.7ZM216.632 42.25L216.601 43.2495L217.552 43.2792L217.629 42.3308L216.632 42.25ZM211.832 42.1L211.863 41.1005L211.841 41.0998L211.819 41.1001L211.832 42.1ZM207.882 42.15L207.869 41.1501L206.911 41.1622L206.882 42.1197L207.882 42.15ZM207.832 43.8L206.832 43.7697L206.831 43.8057L206.833 43.8416L207.832 43.8ZM207.932 46.2L206.933 46.2416L206.973 47.2H207.932V46.2ZM212.132 46.2V47.2H212.15L212.168 47.1993L212.132 46.2ZM218.289 46.619L218.739 47.119L220.225 45.781L219.775 45.281L218.289 46.619ZM218.486 46.3603L217.986 51.9103L219.978 52.0897L220.478 46.5397L218.486 46.3603ZM218.982 51H200.632V53H218.982V51ZM201.631 52.0469L201.981 44.5969L199.983 44.5031L199.633 51.9531L201.631 52.0469ZM201.982 44.5305L201.632 26.5805L199.632 26.6195L199.982 44.5695L201.982 44.5305ZM200.632 27.6H219.232V25.6H200.632V27.6ZM218.458 27.2332L218.908 27.7832L220.456 26.5168L220.006 25.9668L218.458 27.2332ZM218.686 27.0595L218.186 32.5595L220.178 32.7405L220.678 27.2405L218.686 27.0595ZM219.22 31.6507L212.62 31.4007L212.544 33.3993L219.144 33.6493L219.22 31.6507ZM212.582 31.4H208.132V33.4H212.582V31.4ZM207.132 32.3744L207.032 36.2744L209.032 36.3256L209.132 32.4256L207.132 32.3744ZM208.032 37.3H212.332V35.3H208.032V37.3ZM212.366 37.2994L216.716 37.1494L216.647 35.1506L212.297 35.3006L212.366 37.2994ZM215.873 36.7382L216.273 37.2882L217.891 36.1118L217.491 35.5618L215.873 36.7382ZM216.085 36.6192L215.635 42.1692L217.629 42.3308L218.079 36.7808L216.085 36.6192ZM216.663 41.2505L211.863 41.1005L211.801 43.0995L216.601 43.2495L216.663 41.2505ZM211.819 41.1001L207.869 41.1501L207.894 43.1499L211.844 43.0999L211.819 41.1001ZM206.882 42.1197L206.832 43.7697L208.831 43.8303L208.881 42.1803L206.882 42.1197ZM206.833 43.8416L206.933 46.2416L208.931 46.1584L208.831 43.7584L206.833 43.8416ZM207.932 47.2H212.132V45.2H207.932V47.2ZM212.168 47.1993L219.068 46.9493L218.996 44.9507L212.096 45.2007L212.168 47.1993ZM240.923 27.45L241.909 27.6169L242.049 26.7895L241.258 26.508L240.923 27.45ZM239.823 33.95L240.044 34.9251L240.697 34.7768L240.809 34.1169L239.823 33.95ZM238.723 34.2L238.139 35.012L238.505 35.275L238.944 35.1751L238.723 34.2ZM235.423 32.4L235.056 33.3305L235.066 33.3341L235.423 32.4ZM230.973 32.25L231.606 33.024L231.613 33.0182L230.973 32.25ZM234.173 36.2L233.79 37.1237L233.801 37.1284L233.812 37.1328L234.173 36.2ZM237.823 37.9L237.317 38.7627L237.335 38.7729L237.352 38.7824L237.823 37.9ZM240.373 40.2L239.554 40.7735L239.56 40.7825L239.566 40.7914L240.373 40.2ZM240.323 48.15L239.461 47.642L239.457 47.6503L239.452 47.6587L240.323 48.15ZM236.773 51.3L236.333 50.4019L236.326 50.4056L236.773 51.3ZM222.273 51L221.285 50.8463L221.158 51.6604L221.933 51.9405L222.273 51ZM223.323 44.25L222.731 43.4436L222.398 43.688L222.335 44.0963L223.323 44.25ZM224.073 43.7L224.736 42.9514L224.132 42.4165L223.481 42.8936L224.073 43.7ZM227.973 46.2L227.569 47.1147L227.578 47.1187L227.587 47.1224L227.973 46.2ZM233.423 46.6L234.033 47.3926L234.033 47.3926L233.423 46.6ZM233.223 43.95L233.766 43.1104L233.766 43.1104L233.223 43.95ZM230.323 42.55L230.706 41.6262L230.694 41.6215L230.323 42.55ZM226.573 40.8L226.067 41.6627L226.073 41.6664L226.08 41.67L226.573 40.8ZM224.023 38.45L223.204 39.0235L223.21 39.0325L223.216 39.0414L224.023 38.45ZM224.223 30.35L223.391 29.7953L223.387 29.8004L224.223 30.35ZM227.923 27.3L228.34 28.2091L228.347 28.2055L228.355 28.2018L227.923 27.3ZM233.623 27.15C235.935 27.15 238.255 27.5613 240.587 28.392L241.258 26.508C238.724 25.6053 236.177 25.15 233.623 25.15V27.15ZM239.937 27.2831L238.837 33.7831L240.809 34.1169L241.909 27.6169L239.937 27.2831ZM239.601 32.9749L238.501 33.2249L238.944 35.1751L240.044 34.9251L239.601 32.9749ZM239.306 33.388C238.176 32.5752 237 31.9325 235.78 31.4659L235.066 33.3341C236.112 33.7342 237.137 34.2915 238.139 35.012L239.306 33.388ZM235.789 31.4696C234.629 31.0125 233.564 30.75 232.623 30.75V32.75C233.215 32.75 234.017 32.9208 235.056 33.3304L235.789 31.4696ZM232.623 30.75C231.77 30.75 230.966 30.954 230.333 31.4818L231.613 33.0182C231.78 32.8793 232.076 32.75 232.623 32.75V30.75ZM230.34 31.476C229.745 31.9626 229.423 32.6281 229.423 33.4H231.423C231.423 33.2385 231.467 33.1374 231.606 33.024L230.34 31.476ZM229.423 33.4C229.423 34.3747 229.941 35.1294 230.73 35.6396L231.816 33.9604C231.471 33.7373 231.423 33.5587 231.423 33.4H229.423ZM230.73 35.6396C231.378 36.0591 232.417 36.5546 233.79 37.1237L234.556 35.2763C233.195 34.7121 232.301 34.2742 231.816 33.9604L230.73 35.6396ZM233.812 37.1328C235.247 37.6871 236.411 38.2317 237.317 38.7627L238.329 37.0373C237.301 36.435 236.032 35.8462 234.533 35.2672L233.812 37.1328ZM237.352 38.7824C238.203 39.236 238.937 39.8923 239.554 40.7735L241.192 39.6265C240.409 38.5077 239.443 37.6307 238.293 37.0176L237.352 38.7824ZM239.566 40.7914C240.149 41.5864 240.473 42.6171 240.473 43.95H242.473C242.473 42.2829 242.063 40.8136 241.179 39.6086L239.566 40.7914ZM240.473 43.95C240.473 45.2702 240.138 46.4949 239.461 47.642L241.184 48.658C242.041 47.2051 242.473 45.6298 242.473 43.95H240.473ZM239.452 47.6587C238.838 48.7473 237.825 49.6712 236.333 50.4019L237.213 52.1981C238.987 51.3288 240.341 50.1527 241.194 48.6413L239.452 47.6587ZM236.326 50.4056C234.904 51.1166 233.068 51.5 230.773 51.5V53.5C233.278 53.5 235.442 53.0834 237.22 52.1944L236.326 50.4056ZM230.773 51.5C227.99 51.5 225.272 51.0207 222.613 50.0595L221.933 51.9405C224.807 52.9793 227.755 53.5 230.773 53.5V51.5ZM223.261 51.1537L224.311 44.4037L222.335 44.0963L221.285 50.8463L223.261 51.1537ZM223.914 45.0564L224.664 44.5064L223.481 42.8936L222.731 43.4436L223.914 45.0564ZM223.41 44.4486C224.654 45.5507 226.042 46.4399 227.569 47.1147L228.377 45.2853C227.037 44.6934 225.825 43.916 224.736 42.9514L223.41 44.4486ZM227.587 47.1224C229.091 47.7522 230.478 48.1 231.723 48.1V46.1C230.835 46.1 229.721 45.8478 228.359 45.2776L227.587 47.1224ZM231.723 48.1C232.581 48.1 233.381 47.8941 234.033 47.3926L232.813 45.8074C232.598 45.9726 232.265 46.1 231.723 46.1V48.1ZM234.033 47.3926C234.686 46.8903 235.073 46.1924 235.073 45.35H233.073C233.073 45.5076 233.027 45.643 232.813 45.8074L234.033 47.3926ZM235.073 45.35C235.073 44.3753 234.555 43.6206 233.766 43.1104L232.68 44.7896C233.025 45.0127 233.073 45.1913 233.073 45.35H235.073ZM233.766 43.1104C233.118 42.6909 232.079 42.1954 230.706 41.6263L229.94 43.4737C231.3 44.0379 232.195 44.4758 232.68 44.7896L233.766 43.1104ZM230.694 41.6215C229.221 41.0321 228.015 40.4676 227.066 39.93L226.08 41.67C227.131 42.2658 228.425 42.8679 229.951 43.4785L230.694 41.6215ZM227.079 39.9373C226.242 39.4467 225.491 38.7604 224.829 37.8586L223.216 39.0414C224.022 40.1396 224.971 41.02 226.067 41.6627L227.079 39.9373ZM224.842 37.8765C224.287 37.0833 223.973 36.031 223.973 34.65H221.973C221.973 36.3357 222.359 37.8167 223.204 39.0235L224.842 37.8765ZM223.973 34.65C223.973 33.234 224.338 31.9938 225.058 30.8996L223.387 29.8004C222.441 31.2395 221.973 32.866 221.973 34.65H223.973ZM225.055 30.9047C225.806 29.778 226.886 28.8751 228.34 28.2091L227.506 26.3909C225.759 27.1915 224.373 28.322 223.391 29.7953L225.055 30.9047ZM228.355 28.2018C229.792 27.5134 231.537 27.15 233.623 27.15V25.15C231.308 25.15 229.254 25.5533 227.491 26.3982L228.355 28.2018ZM264.441 27.15L265.438 27.2301L265.467 26.8612L265.25 26.5618L264.441 27.15ZM263.991 32.75L263.934 33.7484L264.909 33.8036L264.988 32.8301L263.991 32.75ZM258.691 32.45L258.747 31.4516L258.719 31.45H258.691V32.45ZM257.791 32.45V31.45H256.808L256.791 32.4324L257.791 32.45ZM257.591 43.8L256.591 43.7824L256.59 43.8095L256.591 43.8366L257.591 43.8ZM257.891 52V53H258.928L258.89 51.9634L257.891 52ZM250.391 52L249.392 51.9531L249.343 53H250.391V52ZM250.741 44.55L251.74 44.5969L251.741 44.5652L251.741 44.5335L250.741 44.55ZM250.541 32.45L251.541 32.4335L251.524 31.45H250.541V32.45ZM249.641 32.45V31.45H249.613L249.585 31.4515L249.641 32.45ZM244.241 32.75L243.501 33.4227L243.821 33.7749L244.296 33.7485L244.241 32.75ZM243.741 32.2L242.744 32.1199L242.709 32.5519L243.001 32.8727L243.741 32.2ZM244.191 26.6V25.6H243.268L243.194 26.5199L244.191 26.6ZM264.041 26.6L264.85 26.0118L264.55 25.6H264.041V26.6ZM263.444 27.0699L262.994 32.6699L264.988 32.8301L265.438 27.2301L263.444 27.0699ZM264.047 31.7516L258.747 31.4516L258.634 33.4484L263.934 33.7484L264.047 31.7516ZM258.691 31.45H257.791V33.45H258.691V31.45ZM256.791 32.4324L256.591 43.7824L258.591 43.8176L258.791 32.4676L256.791 32.4324ZM256.591 43.8366L256.891 52.0366L258.89 51.9634L258.59 43.7634L256.591 43.8366ZM257.891 51H250.391V53H257.891V51ZM251.39 52.0469L251.74 44.5969L249.742 44.5031L249.392 51.9531L251.39 52.0469ZM251.741 44.5335L251.541 32.4335L249.541 32.4665L249.741 44.5665L251.741 44.5335ZM250.541 31.45H249.641V33.45H250.541V31.45ZM249.585 31.4515L244.185 31.7515L244.296 33.7485L249.696 33.4485L249.585 31.4515ZM244.981 32.0773L244.481 31.5273L243.001 32.8727L243.501 33.4227L244.981 32.0773ZM244.738 32.2801L245.188 26.6801L243.194 26.5199L242.744 32.1199L244.738 32.2801ZM244.191 27.6H264.041V25.6H244.191V27.6ZM263.232 27.1882L263.632 27.7382L265.25 26.5618L264.85 26.0118L263.232 27.1882Z" fill="black" mask="url(#path-1-outside-1_78_14)"/>
</g>
<defs>
<filter id="filter0_d_78_14" x="18.8006" y="19.25" width="249.64" height="51.05" filterUnits="userSpaceOnUse" color-interpolation-filters="sRGB">
<feFlood flood-opacity="0" result="BackgroundImageFix"/>
<feColorMatrix in="SourceAlpha" type="matrix" values="0 0 0 0 0 0 0 0 0 0 0 0 0 0 0 0 0 0 127 0" result="hardAlpha"/>
<feOffset dy="4"/>
<feGaussianBlur stdDeviation="2"/>
<feComposite in2="hardAlpha" operator="out"/>
<feColorMatrix type="matrix" values="0 0 0 0 0 0 0 0 0 0 0 0 0 0 0 0 0 0 0.25 0"/>
<feBlend mode="normal" in2="BackgroundImageFix" result="effect1_dropShadow_78_14"/>
<feBlend mode="normal" in="SourceGraphic" in2="effect1_dropShadow_78_14" result="shape"/>
</filter>
</defs>
</svg>
